<svg width="1200" height="630" viewBox="0 0 1200 630" fill="none" xmlns="http://www.w3.org/2000/svg">
<rect width="1200" height="630" fill="#18181A"/>
<path d="M483.023 239.191C483.023 231.778 485.525 226.079 490.529 222.094C495.533 218.017 502.715 215.978 512.074 215.978C521.526 215.978 528.569 216.951 533.202 218.897V238.913C527.55 236.504 521.109 235.299 513.881 235.299C510.175 235.299 507.673 235.901 506.375 237.106C505.078 238.218 504.429 239.84 504.429 241.971V244.056C504.429 246.651 504.846 248.597 505.68 249.894C506.607 251.099 508.553 252.489 511.518 254.064L527.364 262.96C534.963 267.13 538.762 273.385 538.762 281.725V290.343C538.762 297.849 535.982 303.641 530.422 307.718C524.862 311.703 517.032 313.695 506.931 313.695C496.923 313.695 489.371 312.629 484.274 310.498V290.343C490.576 293.03 497.711 294.374 505.68 294.374C513.65 294.374 517.634 292.104 517.634 287.563V285.478C517.634 283.347 517.171 281.771 516.244 280.752C515.41 279.64 513.789 278.435 511.379 277.138L496.506 269.076C487.518 264.072 483.023 257.029 483.023 247.948V239.191ZM584.556 313L580.525 290.76H561.482L557.729 313H537.852L556.756 216.673H585.807L604.433 313H584.556ZM564.401 273.107H577.467L570.795 235.855L564.401 273.107ZM684.95 216.673V313H664.795V279.501C664.795 269.864 665.675 260.365 667.436 251.006L654.092 288.536H637.968L624.624 251.006C626.385 259.624 627.265 269.122 627.265 279.501V313H607.249V216.673H628.655L646.03 265.879L663.405 216.673H684.95ZM693.348 216.673H714.476V313H693.348V216.673Z" fill="#D9D9D9"/>
<path d="M521.766 344.098C521.766 342.43 521.349 341.179 520.515 340.345C519.773 339.419 518.291 338.955 516.067 338.955H506.059V400.254H516.067C519.866 400.254 521.766 398.123 521.766 393.86V344.098ZM485.209 321.858H518.986C526.492 321.858 532.283 323.665 536.361 327.279C540.531 330.893 542.616 336.222 542.616 343.264V395.528C542.616 410.633 535.156 418.185 520.237 418.185H485.209V321.858ZM549.589 321.858H598.378V339.928H570.439V360.361H594.625V378.431H570.439V400.115H598.378V418.185H549.589V321.858ZM642.704 321.858H664.388L646.04 418.185H616.989L598.363 321.858H619.63C625.005 352.531 628.109 371.064 628.943 377.458C629.777 383.852 630.704 391.405 631.723 400.115C633.484 383.528 635.013 371.111 636.31 362.863L642.704 321.858ZM663.742 344.376C663.742 336.963 666.244 331.264 671.248 327.279C676.252 323.202 683.434 321.163 692.793 321.163C702.245 321.163 709.288 322.136 713.921 324.082V344.098C708.269 341.689 701.828 340.484 694.6 340.484C690.894 340.484 688.392 341.087 687.094 342.291C685.797 343.403 685.148 345.025 685.148 347.156V349.241C685.148 351.836 685.565 353.782 686.399 355.079C687.326 356.284 689.272 357.674 692.237 359.249L708.083 368.145C715.682 372.315 719.481 378.57 719.481 386.91V395.528C719.481 403.034 716.701 408.826 711.141 412.903C705.581 416.888 697.751 418.88 687.65 418.88C677.642 418.88 670.09 417.815 664.993 415.683V395.528C671.295 398.216 678.43 399.559 686.399 399.559C694.369 399.559 698.353 397.289 698.353 392.748V390.663C698.353 388.532 697.89 386.957 696.963 385.937C696.129 384.825 694.508 383.621 692.098 382.323L677.225 374.261C668.237 369.257 663.742 362.215 663.742 353.133V344.376Z" fill="#D9D9D9"/>
<g filter="url(#filter0_d_168_276)">
<path fill-rule="evenodd" clip-rule="evenodd" d="M499 203.41C505.627 203.41 511 197.75 511 190.768C511 183.786 505.627 178.125 499 178.125C492.373 178.125 487 183.786 487 190.768C487 197.75 492.373 203.41 499 203.41Z" fill="#FF5E57"/>
<path d="M510.75 190.768C510.75 197.624 505.477 203.16 499 203.16C492.523 203.16 487.25 197.624 487.25 190.768C487.25 183.911 492.523 178.375 499 178.375C505.477 178.375 510.75 183.911 510.75 190.768Z" stroke="black" stroke-opacity="0.12" stroke-width="0.5"/>
<path fill-rule="evenodd" clip-rule="evenodd" d="M540 203.41C547.18 203.41 553 197.75 553 190.768C553 183.786 547.18 178.125 540 178.125C532.82 178.125 527 183.786 527 190.768C527 197.75 532.82 203.41 540 203.41Z" fill="#FFBB2E"/>
<path d="M552.75 190.768C552.75 197.605 547.048 203.16 540 203.16C532.952 203.16 527.25 197.605 527.25 190.768C527.25 183.93 532.952 178.375 540 178.375C547.048 178.375 552.75 183.93 552.75 190.768Z" stroke="black" stroke-opacity="0.12" stroke-width="0.5"/>
<path fill-rule="evenodd" clip-rule="evenodd" d="M581 203.41C587.627 203.41 593 197.75 593 190.768C593 183.786 587.627 178.125 581 178.125C574.373 178.125 569 183.786 569 190.768C569 197.75 574.373 203.41 581 203.41Z" fill="#38C149"/>
<path d="M592.75 190.768C592.75 197.624 587.477 203.16 581 203.16C574.523 203.16 569.25 197.624 569.25 190.768C569.25 183.911 574.523 178.375 581 178.375C587.477 178.375 592.75 183.911 592.75 190.768Z" stroke="black" stroke-opacity="0.12" stroke-width="0.5"/>
</g>
<defs>
<filter id="filter0_d_168_276" x="483" y="178.125" width="114" height="33.2849" filterUnits="userSpaceOnUse" color-interpolation-filters="sRGB">
<feFlood flood-opacity="0" result="BackgroundImageFix"/>
<feColorMatrix in="SourceAlpha" type="matrix" values="0 0 0 0 0 0 0 0 0 0 0 0 0 0 0 0 0 0 127 0" result="hardAlpha"/>
<feOffset dy="4"/>
<feGaussianBlur stdDeviation="2"/>
<feComposite in2="hardAlpha" operator="out"/>
<feColorMatrix type="matrix" values="0 0 0 0 0 0 0 0 0 0 0 0 0 0 0 0 0 0 0.25 0"/>
<feBlend mode="normal" in2="BackgroundImageFix" result="effect1_dropShadow_168_276"/>
<feBlend mode="normal" in="SourceGraphic" in2="effect1_dropShadow_168_276" result="shape"/>
</filter>
</defs>
</svg>
